<?xml version="1.0" standalone="no"?>
<!DOCTYPE svg PUBLIC "-//W3C//DTD SVG 20010904//EN"
 "http://www.w3.org/TR/2001/REC-SVG-20010904/DTD/svg10.dtd">
<svg version="1.0" xmlns="http://www.w3.org/2000/svg"
 width="1000.000000pt" height="1000.000000pt" viewBox="0 0 1000.000000 1000.000000"
 preserveAspectRatio="xMidYMid meet">
<metadata>
Created by potrace 1.14, written by Peter Selinger 2001-2017
</metadata>
<g transform="translate(0.000000,1000.000000) scale(0.100000,-0.100000)"
fill="#000000" stroke="none">
<path d="M0 9628 l0 -373 37 -72 c24 -47 44 -73 54 -73 10 0 19 3 21 8 8 18
117 53 144 46 55 -12 110 -53 167 -121 50 -60 63 -69 93 -71 40 -3 103 -32
124 -57 19 -23 65 -45 93 -45 22 0 65 14 122 40 11 5 58 16 105 26 47 9 90 20
95 24 6 4 25 11 43 15 37 8 41 24 12 50 -12 11 -20 31 -20 51 l0 33 -35 -15
c-65 -27 -77 -9 -17 27 40 25 53 39 46 50 -2 4 -9 38 -14 76 -6 37 -15 93 -21
123 -5 30 -13 79 -17 108 l-7 54 -23 -31 c-14 -20 -25 -51 -28 -84 -9 -87 -12
-94 -45 -106 -39 -13 -39 -13 -39 -1 0 6 11 16 25 22 23 10 25 16 25 79 0 61
4 75 35 123 22 35 35 67 35 89 0 47 -44 131 -77 146 -15 7 -43 25 -62 40 -20
15 -49 35 -64 45 l-29 18 5 -29 c3 -15 13 -73 22 -128 9 -55 20 -107 25 -115
4 -9 11 -45 15 -80 7 -59 6 -63 -9 -51 -9 7 -16 26 -16 42 0 15 -4 30 -9 33
-4 3 -11 27 -15 53 -3 26 -10 61 -15 78 -33 106 -41 142 -41 180 0 42 -1 43
-51 65 -29 12 -82 32 -118 43 l-67 22 24 -44 c40 -77 52 -123 52 -212 0 -71
-5 -97 -26 -145 -26 -59 -50 -94 -65 -94 -4 0 5 26 20 58 41 82 53 131 41 172
-6 19 -10 49 -10 66 0 17 -21 72 -46 123 l-46 91 -224 0 -224 0 0 -372z"/>
<path d="M1114 9975 c3 -13 9 -51 12 -83 l6 -59 69 -23 c38 -14 69 -29 69 -34
0 -6 17 7 38 27 36 35 62 47 62 29 0 -4 -18 -26 -40 -47 l-40 -39 -60 12 c-34
7 -67 15 -74 18 -16 6 -6 -76 19 -151 16 -50 18 -51 78 -69 64 -19 111 -21
230 -10 71 6 122 0 113 -15 -3 -4 -45 -11 -93 -15 -48 -4 -101 -13 -118 -21
-28 -11 -42 -10 -109 8 -92 25 -96 22 -96 -69 0 -60 1 -62 43 -96 23 -19 56
-42 74 -51 17 -9 74 -57 127 -106 108 -100 157 -124 291 -142 102 -14 115 -25
115 -100 0 -32 5 -61 10 -64 6 -3 10 -15 10 -25 0 -34 58 -88 119 -111 61 -22
111 -60 111 -85 0 -11 -8 -8 -27 11 -16 14 -58 36 -94 50 -102 39 -150 102
-153 199 -1 34 -5 66 -9 72 -3 6 -33 12 -66 13 -134 5 -219 42 -333 147 -39
36 -84 72 -102 81 -17 8 -46 26 -63 40 -18 13 -33 20 -33 15 0 -13 39 -46 102
-86 74 -47 88 -74 88 -173 1 -91 12 -149 35 -172 17 -18 106 -20 202 -6 71 10
92 3 151 -52 45 -43 148 -190 165 -235 5 -14 17 -16 64 -14 76 4 196 -18 247
-46 34 -18 65 -23 181 -29 109 -5 158 -13 220 -33 91 -29 150 -33 191 -11 16
8 37 15 46 15 9 0 20 5 23 10 13 20 47 9 89 -30 49 -46 63 -48 100 -19 42 33
109 46 189 37 66 -8 73 -7 127 21 32 17 77 33 99 37 23 4 42 9 42 13 1 3 3 25
3 47 3 56 23 83 114 154 82 65 112 110 111 170 0 34 -10 51 -76 140 -40 52
-45 112 -12 153 14 19 22 47 26 99 3 41 16 98 29 129 13 31 30 101 39 155 8
54 29 150 45 213 17 64 30 140 30 172 l0 59 -1381 0 -1381 0 6 -25z"/>
<path d="M3905 9936 c5 -46 3 -79 -9 -118 -21 -73 -45 -187 -56 -273 -6 -38
-21 -104 -35 -145 -13 -41 -27 -105 -30 -143 -5 -50 -13 -75 -30 -95 -20 -24
-22 -34 -15 -65 4 -21 23 -57 42 -80 18 -23 41 -54 51 -69 20 -32 22 -110 4
-150 -13 -28 -68 -89 -112 -123 -79 -60 -94 -81 -93 -134 0 -47 1 -50 26 -49
15 0 56 -10 92 -23 55 -19 85 -23 190 -23 167 0 194 8 256 74 27 30 88 94 135
144 48 50 107 118 132 151 39 53 47 72 66 167 12 59 32 143 46 185 14 43 25
86 25 96 0 17 -28 89 -50 129 -5 9 -12 47 -16 84 -6 53 -4 69 8 78 8 6 23 27
34 46 10 19 24 38 29 42 6 4 6 8 1 8 -5 0 -4 6 1 13 6 6 16 29 22 50 12 34 31
51 31 27 0 -30 -45 -139 -71 -171 -21 -27 -29 -48 -29 -77 0 -23 5 -44 10 -47
6 -3 10 -13 10 -21 0 -14 21 -66 56 -137 12 -26 11 -38 -11 -112 -13 -45 -27
-100 -30 -121 l-7 -39 60 61 c57 57 169 133 220 148 12 4 22 12 22 17 0 5 6 9
13 9 12 0 74 39 111 70 10 8 61 58 115 110 65 64 112 102 144 115 26 10 47 24
47 30 0 42 29 95 91 165 78 89 89 111 89 178 -1 90 75 82 -809 82 l-783 0 7
-64z"/>
<path d="M5526 9931 c6 -62 4 -72 -19 -112 -15 -24 -47 -66 -72 -94 -42 -46
-85 -113 -85 -132 0 -4 48 -8 108 -9 99 0 116 -3 226 -41 l120 -41 22 48 c12
26 26 50 32 54 6 3 8 33 5 70 -6 72 14 178 51 269 l24 57 -209 0 -209 0 6 -69z"/>
<path d="M5959 9953 c-12 -27 -27 -63 -35 -81 -20 -44 -30 -116 -24 -176 4
-44 7 -48 20 -35 26 24 95 69 108 69 7 0 12 4 12 9 0 5 8 11 18 13 13 4 23 26
35 80 10 41 29 91 42 111 14 20 25 41 25 46 0 7 -34 11 -91 11 l-90 0 -20 -47z"/>
<path d="M6175 9950 c-22 -43 -55 -147 -55 -172 0 -5 9 -4 21 3 13 7 42 8 79
4 66 -8 125 8 193 52 23 16 48 30 55 33 9 4 14 27 15 68 l2 62 -142 0 -143 0
-25 -50z"/>
<path d="M6526 9984 c-3 -9 -6 -36 -6 -60 0 -40 2 -44 18 -35 10 5 35 6 62 1
25 -5 48 -9 52 -10 8 0 52 -43 85 -83 35 -41 3 -33 -38 9 -49 52 -81 63 -159
54 -35 -5 -66 -13 -68 -19 -2 -6 -8 -11 -14 -11 -6 0 -35 -16 -65 -36 -51 -34
-60 -36 -146 -39 -51 -2 -105 -8 -122 -13 -40 -13 -97 -43 -113 -59 -7 -7 -17
-13 -21 -13 -8 0 -41 -27 -84 -68 -20 -18 -40 -54 -51 -88 -6 -20 -1 -23 56
-32 35 -6 97 -14 138 -17 41 -4 108 -15 148 -26 40 -10 81 -19 92 -19 12 0 42
28 79 73 122 148 163 182 241 202 14 3 34 10 45 15 36 16 125 30 190 30 82 0
137 24 199 86 52 53 68 79 84 137 l10 37 -303 0 c-267 0 -304 -2 -309 -16z"/>
<path d="M7156 9966 c-4 -19 -17 -54 -30 -79 l-24 -45 27 8 c15 4 57 11 92 15
35 4 72 12 82 17 10 5 60 11 111 12 91 3 93 3 128 38 19 20 48 43 64 52 27 14
13 15 -207 16 l-237 0 -6 -34z"/>
<path d="M7660 9978 c-50 -23 -130 -84 -130 -99 0 -6 5 -7 10 -4 6 4 18 1 27
-7 9 -7 17 -12 17 -10 1 2 8 1 16 -2 56 -18 95 -26 163 -36 43 -5 81 -11 85
-11 4 -1 -11 -5 -33 -8 -45 -7 -155 10 -239 38 l-57 19 -83 -83 c-111 -111
-251 -202 -411 -269 -22 -9 -48 -21 -57 -26 -9 -5 -35 -13 -58 -16 -22 -4 -43
-11 -46 -15 -3 -5 -31 -9 -62 -9 -98 0 -220 -18 -249 -37 -15 -10 -63 -53
-106 -95 -43 -43 -83 -78 -89 -78 -18 0 77 -65 147 -100 56 -28 76 -33 177
-39 78 -5 124 -12 148 -25 178 -92 282 -139 378 -171 45 -14 82 -29 82 -32 0
-3 -19 -3 -43 0 -59 8 -210 67 -343 133 -106 52 -116 55 -220 64 -133 10 -196
32 -302 105 -44 30 -81 52 -84 50 -5 -5 -126 22 -141 32 -18 11 -77 18 -149
18 -74 -1 -94 -14 -118 -78 -37 -101 -74 -144 -158 -182 -42 -18 -43 -19 -20
-28 12 -6 79 -11 148 -12 130 -1 183 -12 234 -48 22 -15 46 -21 96 -21 75 -1
116 -22 160 -83 105 -146 108 -147 230 -168 120 -21 247 -20 328 2 55 14 69
23 100 62 56 69 95 102 138 117 78 27 121 11 189 -71 22 -26 52 -62 67 -79
l26 -31 129 -1 c70 0 138 -5 150 -10 12 -5 53 -37 92 -72 93 -83 117 -83 248
1 24 15 53 27 65 27 12 0 33 11 47 24 32 29 128 96 138 96 5 0 21 7 36 15 16
8 52 17 80 20 50 6 51 5 27 -9 -14 -8 -33 -15 -43 -16 -9 0 -25 -4 -35 -9 -9
-5 -41 -21 -71 -36 -29 -14 -63 -36 -75 -47 -11 -12 -15 -18 -8 -13 8 4 98 8
200 10 169 3 265 12 330 31 31 9 27 -9 -6 -23 -46 -21 -120 -31 -282 -37 -85
-4 -188 -12 -228 -18 l-73 -11 48 -44 c84 -76 145 -112 209 -124 118 -22 137
-30 185 -79 l46 -47 104 -3 c57 -1 137 -2 177 -2 39 1 72 -3 72 -7 0 -15 -22
-18 -110 -15 -47 2 -122 3 -168 4 l-83 0 -53 50 c-50 47 -57 51 -140 65 -108
19 -141 36 -235 119 -81 72 -111 81 -151 46 -13 -11 -28 -20 -33 -20 -6 0 -18
-7 -27 -15 -10 -9 -37 -19 -61 -24 -54 -9 -98 10 -148 64 -56 61 -102 76 -235
74 -105 -2 -116 0 -147 22 -19 13 -36 27 -38 32 -2 5 -25 35 -52 67 -37 44
-58 61 -83 66 -72 13 -101 -4 -202 -117 l-41 -46 36 -49 c96 -132 178 -162
356 -128 50 9 114 19 143 22 57 4 211 -13 224 -26 5 -5 -56 -8 -134 -8 -105 1
-165 -4 -224 -18 -68 -15 -94 -17 -156 -8 -116 15 -160 44 -248 161 l-25 33
-84 -12 c-78 -12 -160 -10 -331 6 -84 8 -141 45 -196 126 -69 102 -94 120
-163 116 -44 -2 -68 3 -112 25 -69 34 -154 49 -239 41 -50 -5 -85 -1 -148 15
-171 44 -215 30 -346 -109 -54 -58 -112 -117 -129 -132 l-30 -27 25 -10 c63
-24 91 -22 153 9 33 16 67 30 76 30 8 0 20 5 26 11 6 6 38 13 70 16 l60 6 85
-87 c84 -85 86 -86 135 -86 27 0 53 4 59 8 5 5 25 15 44 23 36 14 83 52 156
129 24 24 46 41 50 37 4 -4 -4 -20 -19 -35 l-27 -28 30 -11 c18 -7 42 -32 65
-67 40 -63 68 -84 150 -111 60 -21 75 -41 23 -30 -88 18 -158 66 -200 134 -12
18 -35 39 -52 46 -29 12 -32 11 -76 -27 -67 -60 -168 -106 -233 -108 -11 0
-58 40 -109 90 -77 78 -94 90 -123 90 -19 0 -37 -4 -40 -10 -3 -5 -13 -10 -21
-10 -16 0 -88 -30 -145 -60 -37 -20 -52 -19 -186 21 -31 10 -48 10 -65 2 -13
-6 -38 -17 -57 -24 -19 -7 -66 -44 -104 -81 -78 -77 -77 -77 -201 -52 l-81 17
-64 -31 c-60 -30 -71 -32 -215 -37 -148 -5 -205 -16 -242 -45 -16 -14 -13 -15
32 -21 56 -6 49 -10 -55 -33 -90 -20 -188 -58 -261 -101 -49 -29 -66 -33 -152
-38 -91 -5 -99 -4 -148 22 -28 15 -63 38 -78 52 -92 85 -106 92 -198 96 -86 4
-86 4 -140 -33 -51 -35 -56 -37 -92 -26 -21 6 -51 25 -67 42 -27 28 -56 40
-54 23 0 -5 19 -21 41 -38 29 -21 54 -55 85 -115 49 -93 74 -124 116 -146 41
-22 33 -37 -10 -19 -32 13 -67 44 -101 90 -4 6 -22 36 -40 67 -57 100 -120
135 -221 124 -56 -6 -150 13 -178 36 -7 5 -54 12 -105 14 -163 7 -206 13 -279
39 -39 13 -95 27 -123 30 -28 4 -61 8 -73 11 l-22 4 19 -45 c11 -25 22 -69 25
-98 20 -174 74 -254 177 -264 22 -2 57 -11 76 -20 37 -18 122 -95 122 -111 0
-5 8 -19 19 -30 10 -12 26 -47 36 -77 10 -35 25 -60 38 -67 46 -23 85 -77 92
-126 10 -68 62 -115 150 -136 46 -12 263 13 315 36 61 27 128 92 155 153 27
59 54 86 115 113 46 20 140 46 146 39 2 -1 -2 -19 -8 -39 -9 -30 -16 -37 -45
-41 -78 -13 -110 -37 -148 -108 -65 -124 -177 -201 -312 -214 l-72 -7 6 -31
c18 -94 61 -151 138 -186 108 -49 150 -123 162 -288 l5 -62 29 6 c25 5 29 2
29 -16 0 -19 -16 -27 -44 -22 -5 1 -6 -45 -2 -110 6 -86 4 -110 -5 -107 -24 8
-49 85 -49 152 l0 48 -57 -7 c-111 -14 -191 -5 -278 31 -10 4 0 -10 24 -31 23
-21 49 -51 57 -67 10 -19 39 -39 98 -68 70 -33 86 -45 97 -72 16 -42 19 -68 8
-68 -5 0 -9 9 -9 19 0 34 -45 76 -102 94 -55 17 -70 30 -150 121 -33 37 -65
60 -137 94 -65 31 -111 61 -144 94 -43 43 -59 52 -125 69 -41 10 -85 19 -98
19 -42 0 -124 -23 -124 -36 0 -6 20 -39 45 -73 47 -64 54 -85 31 -94 -8 -3
-22 -20 -31 -38 -19 -37 -16 -95 9 -179 9 -30 24 -77 32 -105 37 -120 46 -180
39 -261 -6 -83 7 -134 43 -172 6 -7 12 -18 12 -23 0 -6 34 -45 75 -86 73 -74
75 -77 75 -126 0 -49 26 -121 59 -159 8 -10 10 -18 4 -18 -35 0 -111 158 -97
202 3 12 -15 37 -58 80 -35 35 -77 83 -93 108 -17 25 -34 48 -39 52 -5 3 -13
71 -18 150 -5 79 -12 150 -17 158 -5 9 -12 31 -16 50 -4 19 -11 40 -15 45 -4
6 -11 26 -15 45 -4 19 -11 41 -16 50 -15 29 -32 105 -31 142 0 21 10 54 21 74
l21 36 -30 41 c-16 22 -30 49 -30 58 0 27 -13 30 -87 18 -37 -6 -82 -13 -98
-16 -17 -2 -49 2 -72 10 l-41 14 -4 -66 c-2 -36 2 -85 9 -108 12 -43 52 -123
66 -134 5 -3 11 -26 14 -50 3 -24 9 -48 13 -54 4 -5 10 -26 14 -46 3 -20 18
-47 32 -60 53 -49 103 -195 81 -235 -28 -49 -21 -140 14 -199 4 -5 10 -32 13
-60 4 -27 21 -78 37 -112 l30 -63 63 0 c60 0 68 -3 125 -45 33 -24 77 -51 98
-60 61 -26 274 -77 323 -78 45 -1 55 3 190 73 30 16 56 27 58 25 10 -9 -11
-45 -30 -51 -11 -3 -47 -21 -79 -40 -31 -19 -63 -34 -71 -34 -31 -1 -38 -14
-26 -54 l12 -39 78 6 c59 4 78 2 78 -8 0 -13 -51 -25 -112 -25 l-38 0 0 -54
c0 -30 4 -58 10 -61 5 -3 10 -14 10 -23 0 -10 17 -43 38 -75 30 -46 37 -65 34
-94 l-4 -35 -24 27 c-13 16 -24 32 -24 36 0 4 -6 14 -13 21 -31 31 -76 143
-89 220 -2 12 -24 0 -88 -53 -64 -53 -99 -73 -143 -86 -36 -10 -64 -24 -72
-37 -13 -20 -9 -27 73 -112 61 -62 104 -118 141 -183 54 -94 63 -102 136 -117
32 -7 41 -14 43 -33 3 -22 1 -23 -28 -17 -18 3 -43 6 -55 6 -38 0 -82 46 -142
149 -37 63 -82 122 -131 170 l-74 74 -34 -64 c-48 -92 -49 -93 -73 -105 -25
-13 -109 -1 -153 22 l-28 15 -1 -63 c-2 -147 1 -201 9 -211 6 -7 13 -28 16
-47 4 -19 11 -44 16 -55 8 -18 13 -37 40 -146 12 -45 92 -184 194 -338 73
-110 87 -141 66 -141 -5 0 -10 3 -10 8 0 4 -23 41 -50 82 -28 41 -64 95 -80
120 -16 25 -33 50 -38 56 -5 5 -15 21 -22 35 -7 13 -16 26 -20 29 -6 5 -54
103 -71 145 -4 11 -11 36 -15 55 -3 19 -10 40 -14 45 -4 6 -11 28 -15 50 -4
22 -10 45 -14 50 -20 28 -32 122 -29 230 3 115 3 118 -22 134 -13 9 -64 55
-113 102 l-88 86 -36 -34 c-20 -18 -42 -33 -48 -33 -7 0 -34 -23 -61 -51 -49
-51 -95 -85 -169 -124 l-40 -22 0 -110 c0 -107 -1 -112 -37 -182 -20 -39 -33
-73 -28 -76 4 -2 10 -24 14 -47 22 -137 102 -309 187 -399 111 -118 146 -157
164 -184 33 -50 64 -119 65 -142 0 -12 5 -25 10 -28 6 -3 10 -13 10 -22 0 -27
42 -104 97 -177 29 -39 55 -83 59 -99 8 -38 61 -90 151 -150 73 -47 73 -47
120 -36 27 7 54 16 61 22 23 18 91 0 148 -39 70 -49 56 -67 -17 -22 -61 37
-113 41 -173 13 -49 -24 -80 -15 -168 44 -85 57 -130 102 -152 151 l-16 35 7
-60 c9 -85 6 -116 -22 -214 -14 -47 -28 -119 -32 -159 -7 -89 9 -125 73 -166
52 -33 67 -51 33 -41 -34 11 -109 66 -109 81 0 7 -5 14 -11 16 -14 5 -13 211
1 226 1 1 3 5 4 10 1 4 10 30 19 57 20 59 22 100 8 217 -9 78 -14 91 -50 139
-22 29 -50 80 -62 114 -63 178 -77 200 -217 349 -90 95 -117 132 -152 203 -53
108 -55 113 -76 189 l-18 62 -27 -52 c-15 -28 -39 -91 -54 -141 -26 -84 -27
-93 -15 -156 13 -69 7 -176 -11 -211 -7 -14 1 -33 38 -85 52 -75 164 -225 174
-233 4 -3 29 -48 57 -100 46 -88 54 -97 106 -125 58 -32 105 -72 138 -118 36
-50 12 -40 -52 21 -34 32 -78 64 -98 72 -52 18 -66 32 -119 124 -45 77 -128
189 -210 281 -10 11 -30 35 -45 53 l-27 32 -25 -43 c-58 -98 -70 -151 -70
-297 0 -148 11 -197 66 -300 17 -30 34 -68 39 -85 16 -50 39 -214 39 -277 0
-32 4 -58 9 -58 5 0 28 -25 51 -55 23 -30 49 -55 56 -55 8 0 14 -6 15 -12 0
-12 61 -44 203 -109 34 -15 85 -58 161 -134 91 -92 118 -113 150 -119 44 -9
73 -25 134 -78 67 -58 74 -73 86 -184 13 -116 32 -152 96 -184 53 -28 172
-141 224 -215 30 -43 44 -74 49 -110 3 -27 11 -54 16 -59 6 -6 10 -17 10 -25
0 -17 83 -187 104 -214 13 -16 24 -18 95 -11 l81 7 29 51 c16 28 37 78 46 111
26 95 36 116 62 126 33 12 103 11 180 -3 50 -9 69 -9 84 0 10 7 27 12 36 12
15 -1 13 -5 -8 -24 -26 -22 -26 -23 -7 -35 11 -7 17 -15 14 -18 -3 -3 -11 -1
-18 5 -34 28 -192 56 -247 44 -33 -7 -35 -11 -56 -87 -16 -61 -68 -171 -100
-213 -1 -1 -37 -6 -80 -10 l-77 -7 31 -40 c17 -22 35 -45 41 -52 15 -18 90
-167 90 -179 0 -21 41 -94 58 -103 10 -5 56 -9 102 -8 l85 1 148 -76 c107 -55
172 -82 235 -96 48 -11 139 -32 204 -47 80 -19 128 -25 155 -21 21 4 70 11
108 16 86 10 144 23 170 37 11 7 56 29 100 50 44 22 116 63 160 92 44 29 81
48 83 42 2 -6 10 -11 17 -11 8 0 17 -5 20 -10 4 -7 -2 -9 -17 -5 -17 4 -44 -8
-108 -50 -47 -31 -114 -70 -150 -86 -36 -16 -76 -36 -90 -43 -35 -18 -93 -33
-175 -45 -110 -17 -173 -15 -270 8 -108 25 -111 25 -95 6 7 -8 51 -27 99 -41
148 -45 230 -114 317 -269 25 -45 66 -105 90 -131 24 -27 44 -52 44 -55 0 -3
9 -16 20 -29 11 -13 20 -27 20 -32 0 -19 -18 -6 -48 34 -17 24 -44 58 -61 76
-17 18 -49 65 -72 104 -63 108 -81 131 -136 181 -49 43 -118 76 -193 92 -60
13 -118 56 -107 81 1 3 -39 16 -89 29 -50 13 -105 30 -122 39 -17 9 -32 16
-34 16 -2 0 -4 -35 -4 -78 -1 -48 -11 -113 -28 -175 -22 -85 -35 -111 -88
-185 -58 -80 -63 -91 -80 -181 -9 -53 -20 -106 -23 -118 l-5 -23 3415 0 3415
0 0 5000 0 5000 -1147 0 c-1142 -1 -1148 -1 -1193 -22z m540 -1975 c-14 -3
-29 -9 -34 -14 -6 -5 -19 -9 -30 -9 -40 -1 -199 -93 -241 -140 -10 -11 -24
-20 -32 -20 -7 0 -13 -4 -13 -10 0 -5 -12 -13 -27 -16 -16 -4 -32 -10 -38 -14
-5 -4 -30 -11 -54 -15 -59 -10 -93 -32 -181 -121 -47 -47 -76 -70 -78 -61 -3
14 118 141 168 177 14 10 59 26 100 37 74 19 103 35 210 114 85 62 175 97 245
97 26 -1 27 -1 5 -5z m-1050 -47 c0 -6 -1029 -5859 -1036 -5889 l-6 -27 -1629
0 c-1216 0 -1629 3 -1629 11 0 15 1030 5879 1035 5897 4 9 339 12 1635 12 896
0 1630 -2 1630 -4z m1567 -249 c142 -47 218 -49 314 -12 35 14 91 28 124 30
46 3 52 2 25 -4 -19 -4 -69 -20 -110 -35 -120 -44 -139 -48 -204 -42 -70 7
-85 10 -106 19 -106 46 -136 51 -285 52 -213 2 -304 -8 -352 -38 -21 -14 -67
-59 -103 -102 -36 -43 -75 -88 -87 -102 -13 -13 -23 -26 -23 -28 0 -2 19 -4
43 -4 23 0 94 -7 157 -16 63 -9 164 -18 225 -21 96 -4 118 -9 185 -39 97 -44
249 -87 305 -87 25 0 45 -4 45 -9 0 -9 -7 -10 -47 -12 -45 -2 -128 19 -253 63
-138 48 -184 56 -375 65 -44 2 -136 11 -203 21 -83 12 -126 14 -130 7 -4 -5
-13 -12 -21 -15 -19 -6 105 -83 156 -97 23 -6 89 -18 149 -26 78 -11 120 -23
152 -41 37 -22 55 -26 125 -26 62 0 77 -2 63 -10 -27 -15 -147 -3 -200 21 -25
10 -87 24 -138 31 -150 18 -193 33 -324 111 -48 29 -83 7 -135 -87 -22 -41
-51 -86 -64 -100 -23 -25 -121 -64 -160 -64 -11 0 -26 -5 -33 -12 -9 -9 -12
-8 -12 4 0 23 21 36 81 50 83 18 114 43 156 127 21 40 50 83 66 96 l30 23 -69
23 c-46 15 -94 23 -141 23 -51 1 -73 5 -73 14 0 8 19 13 58 14 93 3 113 -1
190 -34 l72 -32 42 24 c47 27 61 40 169 166 119 138 153 150 414 149 l190 -1
112 -37z m-1212 -718 c9 -14 111 -58 163 -71 26 -6 57 -14 70 -19 13 -5 28 -7
33 -4 5 4 9 1 9 -5 0 -29 -202 21 -262 65 -18 13 -50 33 -70 45 -21 11 -38 27
-38 34 0 11 11 8 45 -11 25 -13 47 -29 50 -34z m-16 -450 c49 -49 37 -64 -14
-18 -15 13 -31 16 -67 12 -27 -3 -48 -10 -48 -14 0 -5 4 -9 9 -9 6 0 13 -20
17 -45 3 -25 10 -48 15 -51 5 -3 9 -13 9 -22 1 -24 39 -67 80 -87 21 -11 66
-20 113 -23 72 -4 81 -2 136 27 58 30 111 41 111 21 0 -5 -7 -10 -16 -10 -20
0 -106 -41 -116 -55 -8 -11 -165 -18 -188 -8 -8 3 -17 7 -20 7 -3 1 -16 8 -28
15 -13 7 -25 11 -26 9 -2 -2 -8 -36 -15 -75 -13 -85 -43 -170 -73 -208 -30
-39 -32 -25 -3 36 33 72 59 191 52 241 -3 23 -14 53 -25 67 -11 15 -23 42 -27
61 -3 19 -15 54 -26 77 -10 24 -19 47 -19 53 0 16 40 29 92 29 39 1 51 -4 77
-30z m-216 -653 c9 -27 14 -52 12 -57 -3 -4 -1 -10 5 -14 5 -3 10 -18 10 -33
l0 -27 -15 29 c-8 15 -15 37 -15 47 0 11 -4 27 -9 37 -25 45 -37 79 -33 91 6
18 25 -13 45 -73z m-3774 -4277 c13 -11 21 -23 17 -26 -4 -4 -19 5 -34 20 -31
31 -19 36 17 6z"/>
<path d="M4225 7538 c-2 -7 -202 -1142 -445 -2523 -242 -1380 -443 -2522 -446
-2538 l-6 -27 1226 0 c674 0 1226 3 1226 7 0 4 45 264 100 577 54 314 110 633
123 709 l23 137 -713 0 -713 0 5 23 c3 12 19 94 35 182 17 88 33 170 35 183
l5 22 710 0 710 0 5 23 c2 12 57 319 120 682 63 363 118 672 121 688 l6 27
-716 0 -716 0 5 23 c3 12 19 94 35 182 17 88 33 170 35 182 l5 23 712 2 712 3
123 695 c67 382 123 703 123 713 0 16 -65 17 -1220 17 -968 0 -1221 -3 -1225
-12z m1380 -422 c-19 -14 -18 -16 25 -59 29 -30 87 -67 165 -107 66 -35 141
-78 166 -96 26 -19 58 -34 73 -34 27 0 31 -6 17 -29 -10 -16 -47 -7 -76 20
-11 10 -82 49 -157 87 -77 38 -161 90 -192 116 -62 53 -58 55 -70 -44 -6 -44
-5 -46 35 -70 45 -27 106 -86 184 -176 28 -32 64 -72 82 -90 25 -25 29 -34 17
-38 -16 -6 -27 4 -123 113 -132 152 -178 180 -287 181 -97 0 -165 -14 -216
-46 l-42 -27 -151 17 c-119 14 -161 15 -201 6 -62 -13 -88 -4 -183 60 -49 33
-59 45 -50 56 9 11 15 10 37 -5 107 -75 143 -93 157 -81 15 12 242 6 335 -9
39 -6 53 -3 108 26 52 27 73 33 126 33 107 0 125 7 131 49 3 20 9 57 14 83 4
25 4 53 -1 62 -8 14 -2 16 43 16 48 0 51 -1 34 -14z m-1014 -1116 c58 0 69 -3
69 -17 0 -14 -11 -15 -98 -10 -103 6 -132 13 -132 29 0 7 17 8 46 4 26 -3 78
-6 115 -6z m226 -452 c-3 -8 -6 -5 -6 6 -1 11 2 17 5 13 3 -3 4 -12 1 -19z
m-536 -1148 c19 -25 40 -57 47 -72 6 -16 18 -28 26 -28 25 0 26 -15 7 -55
l-18 -38 -7 28 c-10 39 -84 149 -140 209 -33 34 -46 57 -46 77 0 29 1 29 48
-23 26 -29 63 -73 83 -98z m-64 -462 c164 -178 161 -175 228 -193 36 -10 72
-26 81 -36 22 -24 17 -24 -86 6 l-85 24 -100 105 -100 106 -40 -6 c-22 -4 -46
-11 -52 -17 -10 -7 -13 -4 -13 12 0 12 6 23 13 25 6 2 26 8 42 14 52 17 62 13
112 -40z m717 -470 c38 -38 55 -48 71 -43 11 4 43 10 72 15 28 4 56 11 62 14
16 10 113 -22 163 -53 54 -34 95 -86 109 -136 14 -49 4 -56 -15 -11 -8 20 -46
68 -84 106 l-68 70 -64 -6 c-36 -3 -78 -10 -94 -15 -16 -5 -51 -9 -77 -9 -51
0 -67 11 -148 102 l-23 27 23 -6 c13 -4 46 -28 73 -55z m-885 -264 c25 -4 53
-24 103 -71 85 -82 126 -146 134 -206 6 -42 5 -47 -13 -47 -16 0 -18 6 -15 35
5 41 -20 86 -87 160 -70 77 -110 103 -156 103 -94 -1 -105 1 -105 22 0 17 5
19 53 14 28 -3 67 -7 86 -10z"/>
<path d="M7295 9855 c-27 -7 -81 -19 -120 -26 -69 -11 -115 -29 -145 -54 -38
-33 -93 -55 -136 -55 -58 0 -184 -19 -206 -31 -10 -5 -26 -9 -35 -9 -10 -1
-36 -9 -58 -20 -22 -11 -44 -20 -50 -20 -12 0 -87 -81 -162 -172 -30 -38 -65
-71 -78 -74 -12 -3 -56 4 -96 15 -41 11 -107 21 -149 22 -74 1 -185 14 -213
25 -10 3 -20 -12 -35 -53 -32 -85 -53 -115 -124 -172 -120 -96 -138 -113 -168
-166 -16 -29 -30 -54 -30 -56 0 -7 135 3 145 11 6 4 26 11 45 15 38 8 96 42
122 72 10 11 27 46 38 77 43 126 132 154 328 101 51 -14 111 -25 133 -25 42 0
53 8 169 121 65 65 127 89 230 89 74 0 201 18 214 31 6 5 17 9 25 9 9 1 34 9
56 20 22 11 45 19 50 20 14 0 99 44 103 53 2 4 9 7 15 7 10 0 79 42 112 67 6
5 24 17 40 27 36 24 144 125 155 147 8 14 0 16 -58 17 -37 0 -89 -6 -117 -13z"/>
<path d="M5415 9550 c-38 -4 -83 -14 -100 -23 -16 -10 -36 -17 -42 -17 -7 0
-13 -4 -13 -9 0 -5 -8 -12 -18 -15 -10 -4 -41 -29 -68 -57 -129 -133 -206
-192 -351 -270 -43 -23 -80 -45 -83 -48 -3 -3 -23 -21 -44 -40 -39 -33 -116
-128 -116 -143 0 -5 24 -9 53 -10 105 -3 144 -6 198 -17 131 -27 188 -15 278
58 42 34 45 35 120 32 42 -1 102 -3 133 -4 l57 -2 23 50 c34 74 106 155 187
209 40 27 85 68 101 90 27 40 60 109 60 127 0 4 -25 15 -56 24 -31 9 -67 23
-79 31 -19 12 -150 46 -165 42 -3 0 -36 -4 -75 -8z"/>
<path d="M0 9141 c0 -41 5 -46 33 -35 13 5 13 9 0 34 -22 45 -33 45 -33 1z"/>
<path d="M150 9105 c-30 -13 -76 -27 -102 -31 l-48 -7 0 -2188 c0 -2169 0
-2189 20 -2189 10 0 41 7 67 16 33 11 65 15 105 10 40 -4 65 -1 85 9 15 8 34
15 41 15 24 0 107 48 152 87 59 53 118 89 157 97 26 6 37 17 57 59 41 86 103
137 167 137 76 0 259 56 259 80 0 3 -17 22 -37 41 -71 67 -138 98 -297 140
-83 22 -158 42 -167 45 -9 2 -59 41 -110 85 -52 45 -111 92 -131 105 -60 38
-59 70 3 141 37 43 42 76 23 163 -27 122 -29 207 -6 272 l20 57 -29 32 c-74
83 -168 258 -156 291 3 7 9 0 16 -17 22 -59 87 -164 159 -257 32 -42 42 -61
35 -70 -17 -21 -33 -81 -33 -123 -1 -35 6 -71 36 -217 10 -46 -14 -122 -52
-162 -41 -44 -43 -63 -7 -78 25 -11 113 -79 153 -118 27 -27 88 -72 102 -74 7
-2 20 -6 28 -9 8 -4 74 -21 145 -38 72 -17 149 -39 172 -49 45 -20 157 -105
223 -170 37 -36 40 -44 40 -92 0 -29 3 -63 6 -76 6 -22 7 -22 53 15 62 50 108
91 218 198 87 84 127 115 108 85 -5 -8 -4 -11 3 -6 12 7 38 82 47 137 11 61
32 64 137 24 50 -20 98 -41 105 -47 20 -17 81 46 94 97 17 68 51 146 77 177
24 28 24 31 12 89 -7 33 -17 62 -21 65 -5 3 -9 23 -9 44 0 21 -13 77 -30 123
-34 97 -35 112 -16 187 13 50 13 58 -6 105 -11 27 -32 64 -48 80 -29 31 -70
115 -70 144 0 20 -39 124 -49 131 -14 9 -43 74 -57 129 -10 39 -13 79 -8 142
5 71 3 98 -10 133 -20 52 -89 120 -150 147 -25 10 -58 36 -74 57 -31 40 -72
122 -72 145 0 8 -7 28 -15 43 -8 16 -15 37 -15 47 0 9 -5 17 -11 17 -5 0 -67
-57 -137 -127 -70 -70 -140 -135 -157 -144 -33 -18 -84 -33 -101 -31 -12 2 -7
-56 6 -73 5 -5 14 -38 20 -72 12 -58 11 -64 -9 -97 -20 -33 -73 -58 -88 -42
-4 3 1 6 9 6 24 0 68 58 68 88 0 15 -11 60 -25 100 -38 111 -33 126 36 128 20
0 44 8 54 17 9 9 22 17 28 17 7 1 32 26 57 56 25 31 84 94 133 140 l87 85 -14
32 c-19 43 -39 143 -66 327 -8 53 -22 137 -40 245 -5 28 -14 74 -21 103 l-12
52 -26 -34 c-22 -28 -84 -106 -112 -140 -9 -10 -186 32 -196 47 -7 12 112 2
150 -12 29 -11 28 -13 111 111 47 70 57 93 53 115 -8 44 -49 240 -67 323 -5
25 -9 49 -10 54 0 11 -268 -2 -302 -16 l-27 -10 32 -32 c35 -34 67 -80 67 -94
0 -5 -16 -30 -36 -56 -19 -26 -32 -51 -28 -58 4 -6 8 -113 8 -237 1 -193 4
-234 20 -281 10 -30 23 -59 27 -65 14 -15 10 -117 -7 -176 -20 -67 -65 -172
-79 -181 -5 -4 -7 -8 -2 -8 4 0 1 -10 -7 -22 -8 -13 -31 -66 -51 -118 -20 -52
-42 -109 -50 -127 -8 -17 -15 -35 -15 -39 0 -22 -64 -204 -71 -204 -5 0 -9 2
-9 5 0 18 93 324 104 340 7 11 23 47 36 80 13 33 43 101 66 151 24 50 48 112
55 138 14 56 7 143 -16 188 -25 50 -36 157 -37 356 -1 100 -3 182 -5 182 -10
0 -36 -79 -44 -134 -6 -33 -15 -66 -21 -73 -16 -19 -62 -16 -89 6 l-24 20 49
-2 49 -2 14 78 c15 87 37 138 82 186 17 18 31 41 31 51 0 10 -25 40 -55 67
-30 28 -55 55 -55 61 0 6 -25 19 -55 28 -34 11 -76 35 -107 62 -57 48 -85 62
-127 62 -21 0 -36 11 -62 43 -18 23 -41 50 -49 61 -51 64 -104 96 -152 96 -13
-1 -48 -12 -78 -25z"/>
<path d="M5204 8941 c-39 -5 -62 -15 -96 -43 -25 -20 -57 -40 -71 -44 -32 -8
-32 -7 -6 -36 11 -13 35 -43 52 -67 18 -25 38 -46 45 -49 7 -2 68 50 135 117
l122 121 -52 0 c-28 0 -57 2 -65 4 -7 1 -36 0 -64 -3z"/>
<path d="M4623 8862 l-83 -3 -41 -61 c-23 -34 -93 -114 -156 -178 -62 -65
-113 -120 -113 -122 0 -3 57 -6 128 -6 105 -1 136 3 182 20 30 12 59 25 65 30
15 13 101 9 172 -9 l66 -16 54 57 c55 58 130 106 164 106 11 0 19 5 19 10 0 6
-3 10 -8 10 -4 0 -22 22 -40 50 -18 27 -45 56 -60 64 -21 11 -138 34 -252 50
-8 1 -52 0 -97 -2z"/>
<path d="M1306 8779 c6 -8 14 -34 18 -59 3 -25 13 -81 21 -125 9 -44 20 -100
25 -125 5 -25 16 -81 25 -125 22 -105 33 -173 43 -265 5 -41 14 -86 22 -99 17
-32 129 -174 144 -182 6 -4 61 -19 121 -34 66 -17 120 -37 135 -50 14 -11 41
-33 60 -47 54 -40 113 -98 98 -98 -7 0 -33 16 -58 35 -120 92 -128 96 -258
126 -117 27 -128 32 -156 65 -54 63 -88 99 -81 85 5 -7 11 -41 16 -75 14 -113
33 -180 68 -246 4 -8 18 -48 31 -89 23 -74 56 -141 69 -141 15 0 128 -80 157
-111 17 -19 51 -68 74 -109 23 -41 50 -81 58 -87 9 -7 37 -13 63 -13 47 0 75
6 226 49 84 24 145 26 226 7 31 -7 57 -9 57 -4 0 17 -34 63 -90 121 -92 97
-106 148 -62 217 34 52 -3 147 -73 190 -34 21 -65 73 -65 109 0 20 -76 101
-131 139 -11 7 -31 32 -46 55 -23 37 -25 47 -20 118 4 60 2 81 -9 90 -19 16
-35 72 -44 154 -12 106 -23 138 -75 207 -26 35 -63 96 -81 135 -48 102 -58
107 -206 100 -142 -6 -183 3 -260 59 -29 20 -48 31 -42 23z"/>
<path d="M3500 8413 c-8 -3 -30 -12 -49 -19 l-34 -14 24 -26 c13 -15 49 -45
79 -68 l55 -41 105 3 c159 4 214 16 269 55 26 19 57 38 68 41 12 4 27 14 34
22 11 13 9 14 -17 7 -61 -16 -206 -7 -311 20 -94 25 -187 33 -223 20z"/>
<path d="M2070 7984 c0 -48 1 -50 77 -123 96 -91 123 -127 123 -163 0 -20 13
-40 51 -75 95 -90 118 -157 79 -230 -33 -61 -27 -102 23 -156 23 -26 51 -58
62 -72 11 -14 28 -35 38 -46 9 -12 17 -31 17 -43 0 -27 8 -37 42 -56 15 -8 64
-37 110 -65 184 -110 285 -136 434 -110 l40 7 -8 61 c-11 87 -34 166 -54 188
-10 11 -45 33 -78 50 -100 49 -141 105 -182 248 -3 9 -13 12 -35 7 -101 -20
-279 101 -279 189 0 32 -28 70 -77 102 -21 14 -53 72 -68 123 -11 34 -65 105
-95 123 -14 8 -45 18 -70 21 -60 9 -100 25 -127 49 l-23 20 0 -49z"/>
<path d="M2614 6941 c4 -6 16 -16 28 -22 15 -8 18 -8 14 0 -4 6 -16 16 -28 22
-15 8 -18 8 -14 0z"/>
<path d="M2757 6859 c7 -7 15 -10 18 -7 3 3 -2 9 -12 12 -14 6 -15 5 -6 -5z"/>
<path d="M2239 5743 c-41 -4 -47 -8 -64 -41 -10 -21 -20 -69 -23 -114 -4 -67
-2 -80 17 -107 12 -17 29 -31 37 -31 31 0 92 -41 133 -89 60 -71 133 -129 139
-111 9 27 51 60 77 60 45 0 115 42 214 129 13 11 30 21 38 21 17 0 17 22 -1
64 -16 38 -14 37 -146 66 -112 24 -193 49 -201 62 -3 5 -8 8 -10 7 -6 -4 -60
31 -89 57 -29 26 -57 32 -121 27z"/>
<path d="M2080 5505 c-10 -41 -22 -64 -47 -85 -36 -32 -40 -40 -20 -40 7 0 47
-20 89 -45 88 -51 98 -70 98 -177 l0 -69 36 -15 c20 -8 58 -18 85 -21 l48 -6
30 63 c17 34 36 69 43 77 8 10 8 17 1 21 -41 27 -103 81 -128 113 -16 21 -50
48 -75 59 -113 53 -114 53 -131 120 l-15 62 -14 -57z"/>
<path d="M1725 5399 c-10 -45 -42 -114 -68 -146 -29 -36 -66 -105 -77 -142
l-8 -28 46 25 c26 15 74 53 107 85 33 32 77 68 98 78 46 24 48 49 7 81 -17 13
-46 36 -65 51 l-33 28 -7 -32z"/>
<path d="M1860 5390 c27 -21 40 -25 40 -12 0 4 -15 13 -32 20 l-33 12 25 -20z"/>
<path d="M1952 5338 c-9 -9 76 -101 176 -191 l32 -29 0 60 c0 49 -4 64 -22 82
-33 31 -174 90 -186 78z"/>
<path d="M1534 5217 c-43 -45 -116 -116 -161 -156 -46 -41 -83 -78 -83 -82 0
-22 44 -10 156 42 23 10 46 19 52 19 6 0 15 23 21 50 11 50 41 116 82 178 11
17 19 32 16 32 -2 0 -40 -37 -83 -83z"/>
<path d="M1130 5146 c-6 -8 -28 -20 -48 -27 -20 -6 -41 -15 -47 -19 -12 -9
-69 -19 -157 -26 -57 -5 -73 -11 -102 -38 -20 -17 -47 -53 -61 -80 -26 -51
-43 -64 -110 -84 -22 -6 -70 -36 -107 -67 -36 -30 -71 -55 -77 -55 -6 0 -11
-4 -11 -8 0 -18 -166 -60 -245 -61 -47 -1 -92 -8 -112 -17 -17 -9 -37 -13 -42
-9 -8 4 -11 -291 -11 -972 l0 -978 24 30 c13 17 48 41 78 54 97 43 116 51 125
51 17 0 60 55 76 98 42 107 134 210 286 319 2 1 -7 17 -21 35 -62 82 -78 170
-45 249 20 48 98 149 144 188 53 44 56 47 89 65 16 10 20 14 9 10 -11 -5 -51
-10 -90 -12 -81 -4 -137 -26 -209 -83 -62 -50 -75 -41 -17 12 80 74 113 89
230 104 163 22 212 38 309 101 222 146 255 187 329 414 38 117 90 234 170 384
28 54 47 155 39 211 -8 50 -14 52 -71 25 -22 -11 -48 -19 -57 -20 -9 0 -20 -4
-23 -10 -8 -13 -91 -13 -117 1 -17 9 -24 7 -42 -12 -12 -13 -62 -69 -111 -124
-163 -181 -199 -208 -309 -234 -65 -16 -106 -7 -106 24 0 21 6 23 73 29 120
12 130 19 371 270 46 48 74 86 72 95 -2 9 -7 48 -11 86 -4 39 -12 76 -17 83
-14 16 -33 15 -48 -2z"/>
<path d="M1295 4167 c-21 -52 -44 -86 -79 -120 -58 -56 -236 -176 -351 -237
-94 -50 -147 -84 -194 -125 -47 -42 -131 -174 -131 -207 0 -39 20 -128 29
-128 4 0 13 -10 18 -22 6 -13 27 -41 47 -63 93 -105 107 -121 112 -140 3 -11
9 -29 14 -40 28 -63 59 -145 66 -175 l7 -35 12 45 c9 38 18 50 60 76 95 61
112 80 148 172 18 48 51 113 73 146 81 122 78 112 64 160 -31 112 -9 318 44
411 89 155 93 165 95 263 1 50 1 92 -1 92 -2 0 -16 -33 -33 -73z"/>
<path d="M1187 3316 c-20 -24 -51 -75 -69 -112 -18 -38 -36 -72 -41 -75 -4 -3
-3 -29 3 -58 11 -57 27 -75 178 -199 59 -49 152 -150 152 -166 0 -4 10 -28 21
-54 27 -59 29 -129 4 -258 l-19 -101 42 -69 c63 -103 35 -98 -33 7 -28 42 -31
44 -48 29 -9 -9 -20 -38 -23 -63 -6 -45 -16 -58 -28 -38 -4 5 -1 33 5 61 9 42
16 53 38 61 23 8 26 14 27 63 1 30 9 88 19 130 15 72 14 126 -5 151 -4 6 -10
23 -14 39 -4 15 -12 35 -19 42 -7 7 -25 30 -41 51 -17 21 -64 65 -105 98 -117
94 -171 146 -171 164 0 37 -21 41 -54 10 -17 -16 -50 -38 -74 -49 -32 -15 -47
-30 -58 -58 -8 -20 -20 -47 -26 -59 -8 -16 -8 -30 0 -50 14 -37 25 -108 24
-159 0 -49 -45 -126 -97 -169 -20 -17 -48 -40 -63 -52 -15 -13 -33 -23 -39
-23 -7 0 -13 -4 -13 -9 0 -5 -16 -15 -35 -22 -19 -7 -35 -16 -35 -20 0 -4 -10
-9 -23 -13 -40 -10 -72 -64 -71 -121 0 -27 4 -61 9 -75 7 -24 7 -23 -16 5 -32
40 -31 97 4 152 19 30 49 54 116 92 109 63 188 132 212 186 20 43 25 129 10
167 -5 13 -17 59 -26 103 -9 44 -23 94 -30 110 -7 17 -23 57 -36 90 -30 78
-98 175 -122 175 -16 0 -123 -85 -182 -144 -42 -43 -68 -79 -85 -121 -13 -33
-28 -64 -32 -70 -43 -56 -62 -75 -71 -75 -7 -1 -30 -9 -52 -20 -22 -11 -45
-19 -51 -20 -25 0 -94 -42 -118 -70 l-26 -32 0 -1339 0 -1339 1575 0 c866 0
1575 2 1575 5 0 3 9 58 21 121 19 111 22 118 80 202 32 47 59 91 59 97 0 5 7
23 15 39 8 15 13 32 10 36 -3 5 -1 11 4 15 5 3 10 13 10 23 0 9 2 35 5 57 2
22 7 70 11 107 l7 66 -44 25 c-100 58 -169 80 -248 79 -53 0 -82 4 -102 16
-27 16 -68 72 -68 93 0 19 -69 165 -92 194 -104 132 -161 220 -173 268 -4 15
-11 27 -16 27 -4 0 -11 16 -15 35 -3 19 -10 35 -14 35 -4 0 -11 17 -15 38 -18
104 -58 170 -154 260 -46 43 -154 122 -167 122 -14 0 7 -79 36 -136 16 -32 30
-67 30 -76 0 -9 4 -19 9 -22 5 -3 12 -18 15 -33 10 -41 50 -137 59 -141 4 -2
7 -11 7 -20 0 -9 6 -29 14 -44 26 -49 29 -85 10 -117 -16 -27 -17 -37 -5 -109
16 -95 11 -132 -25 -183 -34 -50 -42 -44 -14 12 21 40 21 48 12 158 -9 97 -8
119 4 132 16 18 19 55 4 64 -5 3 -10 13 -10 22 0 9 -16 49 -35 89 -19 40 -35
77 -35 83 0 6 -7 27 -16 48 -9 21 -25 58 -36 83 -11 25 -23 53 -29 62 -24 45
-39 108 -39 165 0 34 -4 65 -10 68 -5 3 -10 42 -10 86 0 43 -4 79 -8 79 -5 0
-13 9 -18 20 -15 33 -122 108 -177 124 -44 13 -68 31 -157 118 -58 57 -116
108 -130 115 -14 6 -70 33 -125 58 -55 26 -112 59 -126 73 -69 71 -129 147
-125 158 5 13 -6 132 -23 244 -6 39 -26 95 -49 142 l-38 77 -37 -43z"/>
</g>
</svg>
